# xmcd
#
# Track frame offsets:
#	150
#	24535
#	44808
#	70351
#	87728
#	112536
#	126935
#	152059
#
# Disc length: 2305 seconds
#
# Revision: 2
# Processed by: cddbd v1.5.2PL0 Copyright (c) Steve Scherf et al.
# Submitted via: audiograbber 1.83.01
#
DISCID=6b08ff08
DTITLE=Krotalus - Blood Offerings
DYEAR=2008
DGENRE=Metal
TTITLE0=Conquered Kingdom
TTITLE1=Forest of the Impaled
TTITLE2=Stripped of Innocence
TTITLE3=Evil Incarnate
TTITLE4=Blood Offerings
TTITLE5=The Dark Prophecy (Sea of Vengeance I)
TTITLE6=Cloak of Darkness (Sea of Vengeance II)
TTITLE7=Brink of Destruction (Sea of Vengeance III)
EXTD=
EXTT0=
EXTT1=
EXTT2=
EXTT3=
EXTT4=
EXTT5=
EXTT6=
EXTT7=
PLAYORDER=
